<svg width="33" height="32" viewBox="0 0 33 32" fill="none" xmlns="http://www.w3.org/2000/svg">
<path d="M4.68461 10.6194H13.9202C14.7031 10.6194 15.4683 10.3872 16.1192 9.95229C16.7701 9.51737 17.2775 8.8992 17.577 8.17595C17.8766 7.4527 17.955 6.65685 17.8023 5.88905C17.6495 5.12125 17.2726 4.41598 16.719 3.86243C16.1655 3.30888 15.4602 2.93191 14.6924 2.77918C13.9246 2.62646 13.1288 2.70484 12.4055 3.00442C11.6823 3.304 11.0641 3.81132 10.6292 4.46223C10.1942 5.11314 9.96209 5.8784 9.96209 6.66124M6.00398 21.1743H20.5171C21.2999 21.1743 22.0652 21.4065 22.7161 21.8414C23.367 22.2763 23.8743 22.8945 24.1739 23.6177C24.4735 24.341 24.5519 25.1368 24.3991 25.9046C24.2464 26.6724 23.8694 27.3777 23.3159 27.9313C22.7623 28.4848 22.0571 28.8618 21.2893 29.0145C20.5215 29.1672 19.7256 29.0889 19.0024 28.7893C18.2791 28.4897 17.6609 27.9824 17.226 27.3315C16.7911 26.6805 16.559 25.9153 16.559 25.1324M3.36523 15.8968H25.7946C26.5774 15.8968 27.3427 15.6647 27.9936 15.2298C28.6445 14.7949 29.1518 14.1767 29.4514 13.4534C29.751 12.7302 29.8293 11.9343 29.6766 11.1665C29.5239 10.3987 29.1469 9.69347 28.5934 9.13992C28.0398 8.58637 27.3345 8.20939 26.5667 8.05667C25.7989 7.90394 25.0031 7.98233 24.2799 8.28191C23.5566 8.58149 22.9384 9.08881 22.5035 9.73972C22.0686 10.3906 21.8364 11.1559 21.8364 11.9387" stroke="#333333" stroke-width="2.65836" stroke-linecap="round" stroke-linejoin="round"/>
</svg>
