<svg width="59" height="59" viewBox="0 0 59 59" fill="none" xmlns="http://www.w3.org/2000/svg">
<path d="M23.8622 0.799805C12.1178 3.07234 2.86774 12.323 0.597656 24.0718H20.6437C23.7562 24.0718 26.253 26.551 26.253 29.6644C26.253 32.7777 23.7562 35.2938 20.6438 35.2938H0.597656C2.86774 47.0426 12.1178 56.2933 23.8622 58.5658V38.5132C23.8622 35.4 26.3591 32.9022 29.4714 32.9022C32.5838 32.9022 35.0991 35.3999 35.0991 38.5132V58.5658C46.8434 56.2933 56.0936 47.0426 58.3636 35.2938H38.3359C35.2236 35.2938 32.7083 32.7777 32.7083 29.6644C32.7083 26.551 35.2236 24.0718 38.3359 24.0718H58.3636C56.0936 12.323 46.8435 3.07234 35.0991 0.799805V20.8155C35.0991 23.9288 32.5838 26.445 29.4714 26.445C26.3591 26.445 23.8622 23.9288 23.8622 20.8155V0.799805Z" fill="#83C878"/>
</svg>
