<svg width="43" height="43" viewBox="0 0 43 43" fill="none" xmlns="http://www.w3.org/2000/svg">
<path d="M26.226 7.49325C25.9345 6.94367 25.2172 6.79086 24.727 7.17389L19.3276 11.3925C18.8336 11.7784 18.1105 11.6199 17.8232 11.0629L16.0034 7.53505C15.7306 7.00625 15.0593 6.83117 14.563 7.15942L4.35653 13.9103C4.07658 14.0955 3.9082 14.4087 3.9082 14.7444V19.3084C3.9082 20.1193 4.82254 20.593 5.48495 20.1254L11.9315 15.5741C12.4093 15.2368 13.0733 15.3797 13.37 15.8838L15.5054 19.5116C15.8012 20.0141 16.4624 20.158 16.9403 19.8238L22.7362 15.7705C23.2363 15.4207 23.9305 15.5967 24.2036 16.1426L25.9996 19.7328C26.2763 20.2859 26.9837 20.4577 27.4833 20.0932L33.442 15.7464C33.8622 15.4398 34.4472 15.5066 34.7876 15.9L38.0349 19.6534C38.6372 20.3495 39.7806 19.9309 39.7911 19.0104L39.8626 12.7112C39.8649 12.5083 39.8054 12.3095 39.692 12.1412L36.523 7.43624C36.2037 6.9622 35.5528 6.85173 35.0949 7.19388L29.5653 11.3265C29.0739 11.6937 28.3707 11.5361 28.0833 10.9941L26.226 7.49325ZM25.667 22.3638L19.3274 27.317C18.8335 27.7029 18.1105 27.5446 17.8231 26.9876L16.0034 23.4616C15.7306 22.9329 15.0594 22.7579 14.5632 23.086L4.35666 29.8347C4.07664 30.0199 3.9082 30.3332 3.9082 30.6688V35.2326C3.9082 36.0435 4.82252 36.5172 5.48493 36.0496L11.9315 31.4985C12.4093 31.1612 13.0734 31.3041 13.3701 31.8082L15.5055 35.436C15.8012 35.9385 16.4625 36.0824 16.9404 35.7482L22.7362 31.6947C23.2364 31.3449 23.9306 31.5209 24.2037 32.0668L25.9998 35.6573C26.2764 36.2103 26.9837 36.3822 27.4833 36.0179L33.4422 31.6728C33.8624 31.3664 34.4472 31.4332 34.7875 31.8263L38.0351 35.5784C38.6374 36.2744 39.7807 35.8557 39.7911 34.9353L39.8627 28.6355C39.865 28.4325 39.8054 28.2337 39.692 28.0653L36.5231 23.3625C36.2038 22.8887 35.5531 22.7782 35.0953 23.1202L29.5654 27.251C29.074 27.6181 28.371 27.4604 28.0835 26.9186L25.6671 22.3638C25.6671 22.3637 25.667 22.3637 25.667 22.3638V22.3638Z" fill="#5189BD"/>
</svg>
