<svg width="400" height="350" viewBox="0 0 400 350" fill="none" xmlns="http://www.w3.org/2000/svg">
<mask id="path-2-outside-1_188_1181" maskUnits="userSpaceOnUse" x="80.8613" y="78.9219" width="229" height="198" fill="black">
<rect fill="white" x="80.8613" y="78.9219" width="229" height="198"/>
<path fill-rule="evenodd" clip-rule="evenodd" d="M83.7289 80.6835L195.295 273.922L306.861 80.6835L83.7289 80.6835ZM102.634 91.5986L195.295 252.092L287.955 91.5986L102.634 91.5986Z"/>
</mask>
<path d="M195.295 273.922L194.155 274.58L195.295 276.555L196.435 274.58L195.295 273.922ZM83.7289 80.6835L83.7289 79.3668L81.4483 79.3668L82.5886 81.3418L83.7289 80.6835ZM306.861 80.6835L308.002 81.3419L309.142 79.3668L306.861 79.3668L306.861 80.6835ZM195.295 252.092L194.154 252.75L195.295 254.725L196.435 252.75L195.295 252.092ZM102.634 91.5986L102.634 90.2819L100.353 90.2819L101.493 92.257L102.634 91.5986ZM287.955 91.5986L289.096 92.257L290.236 90.2819L287.955 90.2819L287.955 91.5986ZM196.435 273.264L84.8692 80.0251L82.5886 81.3418L194.155 274.58L196.435 273.264ZM305.721 80.0251L194.155 273.264L196.435 274.58L308.002 81.3419L305.721 80.0251ZM83.7289 82.0002L306.861 82.0002L306.861 79.3668L83.7289 79.3668L83.7289 82.0002ZM196.435 251.434L103.774 90.9403L101.493 92.257L194.154 252.75L196.435 251.434ZM286.815 90.9403L194.154 251.434L196.435 252.75L289.096 92.257L286.815 90.9403ZM102.634 92.9153L287.955 92.9153L287.955 90.2819L102.634 90.2819L102.634 92.9153Z" fill="#333333" mask="url(#path-2-outside-1_188_1181)"/>
<g filter="url(#filter0_d_188_1181)">
<path d="M81.479 140.249C114.25 140.249 140.815 113.684 140.815 80.913C140.815 48.1424 114.25 21.5767 81.479 21.5767C48.7084 21.5767 22.1426 48.1424 22.1426 80.913C22.1426 113.684 48.7084 140.249 81.479 140.249Z" fill="black"/>
<path d="M81.479 140.249C114.25 140.249 140.815 113.684 140.815 80.913C140.815 48.1424 114.25 21.5767 81.479 21.5767C48.7084 21.5767 22.1426 48.1424 22.1426 80.913C22.1426 113.684 48.7084 140.249 81.479 140.249Z" fill="url(#paint0_linear_188_1181)" fill-opacity="0.2"/>
<path d="M81.479 140.249C114.25 140.249 140.815 113.684 140.815 80.913C140.815 48.1424 114.25 21.5767 81.479 21.5767C48.7084 21.5767 22.1426 48.1424 22.1426 80.913C22.1426 113.684 48.7084 140.249 81.479 140.249Z" stroke="#333333" stroke-width="1.31671" stroke-miterlimit="10"/>
</g>
<path d="M75.8622 51.7998C64.1178 54.0723 54.8677 63.323 52.5977 75.0718H72.6437C75.7562 75.0718 78.253 77.551 78.253 80.6644C78.253 83.7777 75.7562 86.2938 72.6438 86.2938H52.5977C54.8677 98.0426 64.1178 107.293 75.8622 109.566V89.5132C75.8622 86.4 78.3591 83.9022 81.4714 83.9022C84.5838 83.9022 87.0991 86.3999 87.0991 89.5132V109.566C98.8434 107.293 108.094 98.0426 110.364 86.2938H90.3359C87.2236 86.2938 84.7083 83.7777 84.7083 80.6644C84.7083 77.551 87.2236 75.0718 90.3359 75.0718H110.364C108.094 63.323 98.8435 54.0723 87.0991 51.7998V71.8155C87.0991 74.9288 84.5838 77.445 81.4714 77.445C78.3591 77.445 75.8622 74.9288 75.8622 71.8155V51.7998Z" fill="#83C878"/>
<path d="M71.7541 122.31V117.016H70.095V116.542H73.9187V117.016H72.2755V122.31H71.7541ZM75.2587 122.31V116.542H78.4346V117.016H75.7801V119.063H78.1581V119.537H75.7801V121.836H78.4346V122.31H75.2587ZM79.9247 122.31V116.542H81.6074C81.9498 116.542 82.2474 116.611 82.5002 116.748C82.753 116.879 82.9479 117.066 83.0848 117.309C83.2217 117.551 83.2902 117.835 83.2902 118.162C83.2902 118.567 83.1796 118.91 82.9584 119.189C82.7372 119.468 82.4343 119.647 82.0499 119.726L83.3455 122.31H82.7293L81.5047 119.766H80.4461V122.31H79.9247ZM80.4461 119.3H81.6074C81.9551 119.3 82.2342 119.194 82.4449 118.984C82.6555 118.773 82.7609 118.496 82.7609 118.154C82.7609 117.806 82.6555 117.53 82.4449 117.324C82.2342 117.119 81.9551 117.016 81.6074 117.016H80.4461V119.3ZM84.6618 122.31V116.542H86.3445C86.6869 116.542 86.9844 116.611 87.2373 116.748C87.4901 116.879 87.6849 117.066 87.8219 117.309C87.9588 117.551 88.0273 117.835 88.0273 118.162C88.0273 118.567 87.9167 118.91 87.6955 119.189C87.4743 119.468 87.1714 119.647 86.7869 119.726L88.0826 122.31H87.4664L86.2418 119.766H85.1832V122.31H84.6618ZM85.1832 119.3H86.3445C86.6921 119.3 86.9713 119.194 87.1819 118.984C87.3926 118.773 87.498 118.496 87.498 118.154C87.498 117.806 87.3926 117.53 87.1819 117.324C86.9713 117.119 86.6921 117.016 86.3445 117.016H85.1832V119.3ZM89.067 122.31L90.6155 116.542H91.2949L92.8434 122.31H92.314L91.8953 120.698H90.0072L89.5963 122.31H89.067ZM90.1257 120.248H91.7768L91.2238 118.138C91.1448 117.833 91.0816 117.577 91.0342 117.372C90.9921 117.166 90.9657 117.032 90.9552 116.969C90.9447 117.032 90.9157 117.166 90.8683 117.372C90.8209 117.577 90.7577 117.833 90.6787 118.138L90.1257 120.248Z" fill="white"/>
<g filter="url(#filter1_d_188_1181)">
<path d="M318.824 140.249C351.594 140.249 378.16 113.684 378.16 80.913C378.16 48.1425 351.594 21.5767 318.824 21.5767C286.053 21.5767 259.487 48.1425 259.487 80.913C259.487 113.684 286.053 140.249 318.824 140.249Z" fill="black"/>
<path d="M318.824 140.249C351.594 140.249 378.16 113.684 378.16 80.913C378.16 48.1425 351.594 21.5767 318.824 21.5767C286.053 21.5767 259.487 48.1425 259.487 80.913C259.487 113.684 286.053 140.249 318.824 140.249Z" fill="url(#paint1_linear_188_1181)" fill-opacity="0.2"/>
<path d="M318.824 140.249C351.594 140.249 378.16 113.684 378.16 80.913C378.16 48.1425 351.594 21.5767 318.824 21.5767C286.053 21.5767 259.487 48.1425 259.487 80.913C259.487 113.684 286.053 140.249 318.824 140.249Z" stroke="#333333" stroke-width="1.31671" stroke-miterlimit="10"/>
</g>
<path d="M324.979 57.5725C324.805 57.2431 324.375 57.1515 324.081 57.3811L313.987 65.2675C313.691 65.4988 313.257 65.4039 313.085 65.07L309.282 57.6965C309.118 57.3795 308.716 57.2746 308.418 57.4713L291.404 68.725C291.237 68.8359 291.136 69.0237 291.136 69.2248V78.5748C291.136 79.0607 291.684 79.3446 292.081 79.0644L304.326 70.4189C304.613 70.2168 305.011 70.3024 305.189 70.6045L309.511 77.9488C309.689 78.25 310.085 78.3362 310.371 78.1359L321.024 70.6863C321.323 70.4767 321.739 70.5822 321.903 70.9093L325.654 78.407C325.82 78.7385 326.244 78.8415 326.543 78.623L337.317 70.7634C337.569 70.5796 337.92 70.6197 338.124 70.8554L345.315 79.1672C345.676 79.5845 346.361 79.3336 346.367 78.7819L346.509 66.3063C346.51 66.1847 346.475 66.0655 346.407 65.9647L340.811 57.6565C340.619 57.3724 340.229 57.3062 339.955 57.5113L329.768 65.1243C329.474 65.3444 329.052 65.2499 328.88 64.9251L324.979 57.5725ZM324.644 81.4644L313.987 89.7913C313.691 90.0226 313.257 89.9277 313.085 89.5939L309.282 82.2237C309.118 81.9069 308.716 81.802 308.419 81.9986L291.405 93.2485C291.237 93.3595 291.136 93.5473 291.136 93.7484V103.098C291.136 103.584 291.684 103.868 292.081 103.588L304.327 94.9425C304.613 94.7403 305.011 94.826 305.189 95.1281L309.512 102.472C309.689 102.774 310.085 102.86 310.372 102.659L321.024 95.2096C321.324 94.9999 321.74 95.1054 321.903 95.4325L325.654 102.931C325.82 103.262 326.244 103.365 326.543 103.147L337.317 95.2904C337.569 95.1068 337.92 95.1468 338.124 95.3824L345.315 103.691C345.676 104.108 346.361 103.857 346.367 103.305L346.509 90.8297C346.51 90.708 346.475 90.5888 346.407 90.4879L340.811 82.1835C340.619 81.8995 340.229 81.8333 339.955 82.0382L329.768 89.6477C329.474 89.8677 329.053 89.7732 328.88 89.4485L324.644 81.4644C324.644 81.4643 324.644 81.4643 324.644 81.4644Z" fill="#5189BD"/>
<path d="M304.361 115.886V110.593H302.702V110.119H306.525V110.593H304.882V115.886H304.361ZM309.351 115.965C309.024 115.965 308.74 115.902 308.497 115.776C308.26 115.644 308.076 115.457 307.944 115.215C307.818 114.972 307.755 114.685 307.755 114.354V111.652C307.755 111.32 307.818 111.035 307.944 110.798C308.076 110.556 308.26 110.369 308.497 110.238C308.74 110.106 309.024 110.04 309.351 110.04C309.677 110.04 309.959 110.106 310.196 110.238C310.438 110.369 310.623 110.556 310.749 110.798C310.881 111.035 310.946 111.32 310.946 111.652V114.354C310.946 114.685 310.881 114.972 310.749 115.215C310.623 115.457 310.438 115.644 310.196 115.776C309.959 115.902 309.677 115.965 309.351 115.965ZM309.351 115.499C309.693 115.499 309.956 115.399 310.141 115.199C310.33 114.999 310.425 114.717 310.425 114.354V111.652C310.425 111.288 310.33 111.006 310.141 110.806C309.951 110.606 309.688 110.506 309.351 110.506C309.014 110.506 308.75 110.606 308.561 110.806C308.371 111.006 308.276 111.288 308.276 111.652V114.354C308.276 114.717 308.368 114.999 308.553 115.199C308.742 115.399 309.008 115.499 309.351 115.499ZM312.531 115.886V110.119H314.214C314.556 110.119 314.854 110.187 315.107 110.324C315.36 110.456 315.555 110.643 315.691 110.885C315.828 111.128 315.897 111.412 315.897 111.739C315.897 112.144 315.786 112.486 315.565 112.766C315.344 113.045 315.041 113.224 314.657 113.303L315.952 115.886H315.336L314.111 113.342H313.053V115.886H312.531ZM313.053 112.876H314.214C314.562 112.876 314.841 112.771 315.052 112.56C315.262 112.35 315.368 112.073 315.368 111.731C315.368 111.383 315.262 111.107 315.052 110.901C314.841 110.696 314.562 110.593 314.214 110.593H313.053V112.876ZM317.268 115.886V110.119H318.951C319.294 110.119 319.591 110.187 319.844 110.324C320.097 110.456 320.292 110.643 320.429 110.885C320.565 111.128 320.634 111.412 320.634 111.739C320.634 112.144 320.523 112.486 320.302 112.766C320.081 113.045 319.778 113.224 319.394 113.303L320.689 115.886H320.073L318.848 113.342H317.79V115.886H317.268ZM317.79 112.876H318.951C319.299 112.876 319.578 112.771 319.789 112.56C319.999 112.35 320.105 112.073 320.105 111.731C320.105 111.383 319.999 111.107 319.789 110.901C319.578 110.696 319.299 110.593 318.951 110.593H317.79V112.876ZM322.077 115.886V110.119H325.253V110.593H322.598V112.639H324.976V113.113H322.598V115.412H325.253V115.886H322.077ZM326.735 115.886V110.119H327.438L329.413 115.294C329.402 115.178 329.392 115.044 329.381 114.891C329.376 114.738 329.371 114.588 329.365 114.44C329.36 114.293 329.358 114.169 329.358 114.069V110.119H329.863V115.886H329.16L327.201 110.712C327.206 110.791 327.211 110.896 327.217 111.028C327.222 111.159 327.227 111.304 327.232 111.462C327.238 111.62 327.24 111.778 327.24 111.936V115.886H326.735ZM332.783 115.886V110.593H331.124V110.119H334.948V110.593H333.305V115.886H332.783Z" fill="white"/>
<g filter="url(#filter2_d_188_1181)">
<path d="M200.151 328.423C232.921 328.423 259.487 301.857 259.487 269.086C259.487 236.316 232.921 209.75 200.151 209.75C167.38 209.75 140.814 236.316 140.814 269.086C140.814 301.857 167.38 328.423 200.151 328.423Z" fill="black"/>
<path d="M200.151 328.423C232.921 328.423 259.487 301.857 259.487 269.086C259.487 236.316 232.921 209.75 200.151 209.75C167.38 209.75 140.814 236.316 140.814 269.086C140.814 301.857 167.38 328.423 200.151 328.423Z" fill="url(#paint2_linear_188_1181)" fill-opacity="0.2"/>
<path d="M200.151 328.423C232.921 328.423 259.487 301.857 259.487 269.086C259.487 236.316 232.921 209.75 200.151 209.75C167.38 209.75 140.814 236.316 140.814 269.086C140.814 301.857 167.38 328.423 200.151 328.423Z" stroke="#333333" stroke-width="1.31671" stroke-miterlimit="10"/>
</g>
<path d="M217.132 261.515C219.752 264.292 221.063 267.788 221.063 271.996C221.063 281.078 211.367 283.201 206.651 295.579C204.903 294.072 204.03 291.89 204.03 289.028C204.03 279.904 217.132 275.167 217.132 261.515ZM206.651 251.034C209.795 254.278 211.367 257.773 211.367 261.515C211.367 274.488 195.527 276.43 198.79 295.579C194.422 292.54 192.239 288.171 192.239 282.477C192.239 273.765 206.651 266.756 206.651 251.034ZM194.859 240.552C198.352 244.92 200.1 248.851 200.1 252.344C200.1 268.721 177.827 273.888 189.619 295.579C182.764 294.059 177.827 287.718 177.827 279.857C177.827 262.825 194.859 260.205 194.859 240.552Z" fill="#EE8868"/>
<path d="M189.071 307.819V302.052H190.619C191.114 302.052 191.507 302.186 191.796 302.455C192.091 302.718 192.239 303.079 192.239 303.537C192.239 303.806 192.186 304.04 192.081 304.241C191.975 304.441 191.825 304.596 191.63 304.707C191.441 304.817 191.212 304.873 190.943 304.873V304.778C191.238 304.772 191.491 304.83 191.701 304.952C191.917 305.067 192.083 305.236 192.199 305.457C192.32 305.673 192.381 305.931 192.381 306.231C192.381 306.553 192.312 306.834 192.175 307.077C192.039 307.314 191.841 307.498 191.583 307.63C191.33 307.756 191.03 307.819 190.682 307.819H189.071ZM189.584 307.345H190.651C191.025 307.345 191.32 307.245 191.536 307.045C191.751 306.845 191.859 306.571 191.859 306.223C191.859 305.876 191.751 305.597 191.536 305.386C191.32 305.175 191.025 305.07 190.651 305.07H189.584V307.345ZM189.584 304.612H190.611C190.959 304.612 191.23 304.52 191.425 304.335C191.62 304.146 191.717 303.89 191.717 303.569C191.717 303.242 191.62 302.987 191.425 302.803C191.23 302.618 190.961 302.526 190.619 302.526H189.584V304.612ZM193.926 307.819V302.052H194.448V307.345H197.173V307.819H193.926ZM198.213 307.819L199.761 302.052H200.441L201.989 307.819H201.46L201.041 306.208H199.153L198.742 307.819H198.213ZM199.272 305.757H200.923L200.37 303.648C200.291 303.343 200.228 303.087 200.18 302.882C200.138 302.676 200.112 302.542 200.101 302.479C200.091 302.542 200.062 302.676 200.014 302.882C199.967 303.087 199.904 303.343 199.825 303.648L199.272 305.757ZM203.171 307.819V307.298L205.897 302.526H203.203V302.052H206.41V302.605L203.701 307.345H206.505V307.819H203.171ZM208.09 307.819V302.052H211.266V302.526H208.611V304.572H210.989V305.046H208.611V307.345H211.266V307.819H208.09Z" fill="white"/>
<path d="M184.513 88.8223V83.0551H186.061C186.557 83.0551 186.949 83.1894 187.239 83.458C187.534 83.7213 187.681 84.0821 187.681 84.5403C187.681 84.8089 187.628 85.0433 187.523 85.2434C187.418 85.4436 187.268 85.599 187.073 85.7096C186.883 85.8202 186.654 85.8755 186.385 85.8755V85.7807C186.68 85.7754 186.933 85.8333 187.144 85.9545C187.36 86.0703 187.526 86.2389 187.642 86.4601C187.763 86.676 187.823 86.9341 187.823 87.2343C187.823 87.5556 187.755 87.8374 187.618 88.0796C187.481 88.3166 187.283 88.501 187.025 88.6327C186.773 88.7591 186.472 88.8223 186.125 88.8223H184.513ZM185.027 88.3482H186.093C186.467 88.3482 186.762 88.2482 186.978 88.048C187.194 87.8479 187.302 87.574 187.302 87.2264C187.302 86.8788 187.194 86.5997 186.978 86.389C186.762 86.1783 186.467 86.073 186.093 86.073H185.027V88.3482ZM185.027 85.6148H186.054C186.401 85.6148 186.672 85.5226 186.867 85.3382C187.062 85.1486 187.16 84.8932 187.16 84.5719C187.16 84.2454 187.062 83.9899 186.867 83.8056C186.672 83.6212 186.404 83.5291 186.061 83.5291H185.027V85.6148ZM189.321 88.8223V83.0551H192.497V83.5291H189.843V85.5753H192.221V86.0493H189.843V88.3482H192.497V88.8223H189.321ZM193.655 88.8223L195.204 83.0551H195.883L197.432 88.8223H196.902L196.484 87.2106H194.596L194.185 88.8223H193.655ZM194.714 86.7603H196.365L195.812 84.6509C195.733 84.3454 195.67 84.09 195.623 83.8846C195.58 83.6792 195.554 83.5449 195.544 83.4817C195.533 83.5449 195.504 83.6792 195.457 83.8846C195.409 84.09 195.346 84.3454 195.267 84.6509L194.714 86.7603ZM200.028 88.8223V83.5291H198.369V83.0551H202.192V83.5291H200.549V88.8223H200.028ZM205.057 88.9013C204.694 88.9013 204.378 88.8381 204.109 88.7117C203.846 88.5853 203.64 88.4062 203.493 88.1744C203.351 87.9374 203.28 87.6609 203.28 87.3449H203.801C203.801 87.6767 203.914 87.9427 204.141 88.1428C204.367 88.3377 204.673 88.4352 205.057 88.4352C205.426 88.4352 205.713 88.343 205.918 88.1586C206.129 87.9743 206.234 87.7189 206.234 87.3923C206.234 87.1132 206.158 86.8709 206.005 86.6655C205.852 86.4601 205.639 86.3179 205.365 86.2389L204.654 86.0177C204.27 85.9018 203.97 85.7069 203.754 85.433C203.543 85.1539 203.438 84.8247 203.438 84.4455C203.438 84.1453 203.503 83.8872 203.635 83.6713C203.767 83.4501 203.954 83.2789 204.196 83.1578C204.444 83.0366 204.733 82.9761 205.065 82.9761C205.56 82.9761 205.953 83.113 206.242 83.3869C206.532 83.6608 206.679 84.0321 206.685 84.5008H206.163C206.163 84.1743 206.063 83.9162 205.863 83.7266C205.663 83.537 205.394 83.4422 205.057 83.4422C204.715 83.4422 204.446 83.5264 204.251 83.695C204.056 83.8635 203.959 84.1005 203.959 84.406C203.959 84.6694 204.033 84.9011 204.18 85.1012C204.328 85.2961 204.533 85.4357 204.796 85.5199L205.508 85.7412C205.897 85.8623 206.203 86.0677 206.424 86.3574C206.645 86.6471 206.756 86.9841 206.756 87.3686C206.756 87.6794 206.685 87.9506 206.542 88.1823C206.406 88.4088 206.208 88.5853 205.95 88.7117C205.697 88.8381 205.4 88.9013 205.057 88.9013Z" fill="white"/>
<path d="M210.806 83.3606V89.2858C210.807 89.3458 210.823 89.4046 210.854 89.4559C210.885 89.5072 210.93 89.549 210.983 89.5769C211.036 89.6047 211.096 89.6176 211.156 89.614C211.216 89.6105 211.274 89.5907 211.323 89.5567L215.602 86.5941C215.78 86.4714 215.78 86.1757 215.602 86.0526L211.323 83.09C211.274 83.0557 211.216 83.0356 211.156 83.0319C211.096 83.0281 211.036 83.0409 210.983 83.0688C210.929 83.0967 210.885 83.1386 210.854 83.1901C210.823 83.2415 210.806 83.3005 210.806 83.3606Z" fill="#888888"/>
<path d="M255.545 154.827L260.54 157.71L259.765 159.051C259.518 159.48 259.205 159.753 258.828 159.869C258.452 159.993 258.066 159.94 257.669 159.711C257.437 159.577 257.26 159.414 257.139 159.223C257.019 159.032 256.959 158.824 256.961 158.6C256.96 158.38 257.027 158.154 257.161 157.922L257.243 157.969C257.1 158.227 256.924 158.417 256.713 158.539C256.505 158.668 256.276 158.727 256.027 158.717C255.779 158.714 255.525 158.638 255.265 158.487C254.987 158.327 254.777 158.127 254.636 157.887C254.499 157.65 254.438 157.387 254.453 157.097C254.47 156.815 254.565 156.524 254.739 156.223L255.545 154.827ZM255.699 155.509L255.166 156.432C254.979 156.756 254.918 157.061 254.983 157.349C255.048 157.636 255.232 157.866 255.533 158.04C255.834 158.214 256.13 158.26 256.42 158.178C256.71 158.096 256.949 157.894 257.136 157.57L257.669 156.646L255.699 155.509ZM258.066 156.875L257.553 157.765C257.379 158.066 257.323 158.347 257.385 158.608C257.452 158.871 257.624 159.083 257.903 159.244C258.185 159.407 258.455 159.451 258.713 159.374C258.97 159.297 259.184 159.111 259.355 158.814L259.872 157.918L258.066 156.875ZM253.141 158.991L258.136 161.874L256.548 164.625L256.137 164.388L257.464 162.089L255.692 161.066L254.503 163.125L254.093 162.888L255.282 160.829L253.291 159.679L251.964 161.978L251.553 161.741L253.141 158.991ZM250.974 162.744L255.194 166.969L254.855 167.557L249.086 166.015L249.35 165.556L250.955 165.999L251.9 164.364L250.709 163.203L250.974 162.744ZM252.23 164.692L251.405 166.122L253.508 166.698C253.812 166.782 254.065 166.855 254.266 166.917C254.465 166.983 254.595 167.027 254.655 167.05C254.605 167.009 254.504 166.917 254.349 166.773C254.195 166.629 254.006 166.447 253.781 166.226L252.23 164.692ZM247.788 168.263L252.372 170.91L253.201 169.473L253.612 169.71L251.7 173.021L251.289 172.784L252.111 171.361L247.527 168.715L247.788 168.263ZM245.205 172.579C245.386 172.264 245.599 172.022 245.843 171.853C246.084 171.688 246.342 171.6 246.616 171.588C246.893 171.583 247.168 171.66 247.441 171.818L247.18 172.269C246.893 172.103 246.606 172.069 246.32 172.165C246.038 172.263 245.8 172.479 245.608 172.812C245.424 173.131 245.36 173.426 245.417 173.696C245.471 173.971 245.64 174.19 245.923 174.353C246.165 174.493 246.413 174.548 246.667 174.518C246.921 174.488 247.151 174.375 247.356 174.177L247.903 173.672C248.196 173.397 248.515 173.234 248.86 173.184C249.207 173.141 249.545 173.215 249.873 173.404C250.133 173.554 250.324 173.741 250.445 173.963C250.571 174.187 250.625 174.435 250.609 174.705C250.59 174.98 250.498 175.261 250.332 175.548C250.084 175.977 249.77 176.249 249.388 176.363C249.006 176.476 248.61 176.419 248.202 176.189L248.462 175.737C248.745 175.9 249.019 175.943 249.283 175.864C249.547 175.786 249.764 175.601 249.932 175.309C250.103 175.012 250.165 174.737 250.116 174.484C250.068 174.231 249.911 174.028 249.647 173.876C249.419 173.744 249.181 173.692 248.934 173.72C248.691 173.75 248.468 173.858 248.263 174.044L247.716 174.549C247.416 174.826 247.086 174.988 246.724 175.035C246.363 175.081 246.016 175.009 245.683 174.816C245.413 174.661 245.214 174.464 245.085 174.225C244.957 173.993 244.903 173.734 244.922 173.447C244.939 173.165 245.033 172.876 245.205 172.579Z" fill="white"/>
<g clip-path="url(#clip0_188_1181)">
<path d="M247.13 180.329L241.999 177.366C241.947 177.336 241.888 177.321 241.828 177.322C241.768 177.324 241.709 177.341 241.659 177.373C241.608 177.405 241.567 177.451 241.54 177.504C241.513 177.558 241.501 177.618 241.506 177.678L241.932 182.865C241.95 183.08 242.206 183.228 242.401 183.136L247.106 180.911C247.161 180.885 247.207 180.845 247.24 180.795C247.274 180.745 247.292 180.687 247.295 180.627C247.297 180.567 247.283 180.507 247.254 180.455C247.225 180.402 247.182 180.358 247.13 180.329Z" fill="#888888"/>
</g>
<path d="M153.017 184.068L148.023 186.952L147.248 185.611C147.001 185.182 146.921 184.775 147.009 184.39C147.089 184.003 147.328 183.695 147.725 183.466C147.957 183.331 148.187 183.26 148.413 183.251C148.639 183.242 148.848 183.294 149.042 183.408C149.232 183.517 149.395 183.688 149.529 183.92L149.447 183.968C149.295 183.715 149.219 183.467 149.218 183.224C149.21 182.979 149.273 182.751 149.407 182.54C149.534 182.327 149.727 182.146 149.987 181.995C150.265 181.835 150.543 181.753 150.822 181.751C151.095 181.751 151.354 181.83 151.597 181.987C151.833 182.143 152.037 182.371 152.211 182.673L153.017 184.068ZM152.35 183.861L151.817 182.937C151.63 182.613 151.395 182.408 151.114 182.321C150.833 182.234 150.542 182.277 150.241 182.451C149.94 182.625 149.752 182.858 149.677 183.15C149.603 183.443 149.659 183.751 149.846 184.075L150.379 184.998L152.35 183.861ZM149.983 185.227L149.469 184.338C149.295 184.037 149.08 183.848 148.823 183.771C148.561 183.697 148.291 183.741 148.013 183.901C147.73 184.065 147.558 184.277 147.495 184.538C147.433 184.799 147.488 185.077 147.659 185.374L148.176 186.27L149.983 185.227ZM150.613 179.904L145.618 182.788L144.031 180.037L144.441 179.8L145.768 182.099L147.54 181.076L146.351 179.017L146.762 178.78L147.951 180.839L149.942 179.69L148.615 177.391L149.025 177.154L150.613 179.904ZM148.446 176.151L142.677 177.693L142.337 177.105L146.558 172.88L146.822 173.339L145.636 174.507L146.58 176.142L148.181 175.692L148.446 176.151ZM146.131 176.265L145.305 174.835L143.755 176.369C143.53 176.59 143.34 176.772 143.186 176.916C143.029 177.055 142.926 177.145 142.877 177.186C142.937 177.163 143.068 177.121 143.269 177.06C143.471 176.998 143.724 176.925 144.028 176.841L146.131 176.265ZM145.26 170.632L140.676 173.279L141.505 174.715L141.095 174.952L139.183 171.641L139.593 171.404L140.415 172.827L144.999 170.18L145.26 170.632ZM142.813 166.237C142.995 166.552 143.098 166.857 143.123 167.153C143.145 167.444 143.093 167.711 142.966 167.955C142.832 168.197 142.628 168.397 142.354 168.555L142.094 168.103C142.381 167.937 142.555 167.706 142.615 167.41C142.67 167.116 142.602 166.803 142.41 166.47C142.225 166.151 142.002 165.948 141.74 165.863C141.475 165.772 141.201 165.809 140.918 165.972C140.676 166.112 140.505 166.299 140.403 166.534C140.302 166.769 140.285 167.025 140.354 167.301L140.518 168.028C140.61 168.419 140.591 168.776 140.462 169.1C140.325 169.422 140.093 169.678 139.764 169.867C139.504 170.018 139.248 170.09 138.995 170.083C138.738 170.08 138.496 170.004 138.27 169.854C138.041 169.701 137.844 169.48 137.678 169.193C137.431 168.764 137.353 168.356 137.445 167.968C137.538 167.58 137.785 167.267 138.189 167.028L138.449 167.479C138.167 167.643 137.993 167.858 137.929 168.126C137.865 168.395 137.917 168.675 138.086 168.967C138.257 169.263 138.464 169.453 138.708 169.538C138.951 169.622 139.205 169.588 139.469 169.436C139.698 169.304 139.861 169.124 139.961 168.896C140.056 168.671 140.074 168.424 140.015 168.153L139.852 167.427C139.762 167.029 139.787 166.662 139.927 166.325C140.067 165.989 140.304 165.725 140.637 165.532C140.906 165.377 141.176 165.303 141.448 165.31C141.713 165.316 141.964 165.398 142.203 165.559C142.439 165.714 142.642 165.94 142.813 166.237Z" fill="white"/>
<g clip-path="url(#clip1_188_1181)">
<path d="M135.14 164.029L140.272 161.066C140.324 161.036 140.366 160.992 140.395 160.94C140.424 160.887 140.438 160.827 140.435 160.768C140.433 160.708 140.414 160.649 140.381 160.599C140.348 160.549 140.302 160.509 140.248 160.483L135.543 158.259C135.348 158.166 135.092 158.314 135.074 158.529L134.648 163.717C134.643 163.777 134.654 163.837 134.681 163.89C134.708 163.944 134.749 163.99 134.799 164.022C134.85 164.054 134.909 164.072 134.969 164.073C135.029 164.074 135.088 164.059 135.14 164.029Z" fill="#888888"/>
</g>
<defs>
<filter id="filter0_d_188_1181" x="13.4844" y="12.9185" width="135.989" height="135.989" filterUnits="userSpaceOnUse" color-interpolation-filters="sRGB">
<feFlood flood-opacity="0" result="BackgroundImageFix"/>
<feColorMatrix in="SourceAlpha" type="matrix" values="0 0 0 0 0 0 0 0 0 0 0 0 0 0 0 0 0 0 127 0" result="hardAlpha"/>
<feOffset/>
<feGaussianBlur stdDeviation="4"/>
<feComposite in2="hardAlpha" operator="out"/>
<feColorMatrix type="matrix" values="0 0 0 0 0.470588 0 0 0 0 0.784314 0 0 0 0 0.615686 0 0 0 1 0"/>
<feBlend mode="normal" in2="BackgroundImageFix" result="effect1_dropShadow_188_1181"/>
<feBlend mode="normal" in="SourceGraphic" in2="effect1_dropShadow_188_1181" result="shape"/>
</filter>
<filter id="filter1_d_188_1181" x="250.829" y="12.9185" width="135.989" height="135.989" filterUnits="userSpaceOnUse" color-interpolation-filters="sRGB">
<feFlood flood-opacity="0" result="BackgroundImageFix"/>
<feColorMatrix in="SourceAlpha" type="matrix" values="0 0 0 0 0 0 0 0 0 0 0 0 0 0 0 0 0 0 127 0" result="hardAlpha"/>
<feOffset/>
<feGaussianBlur stdDeviation="4"/>
<feComposite in2="hardAlpha" operator="out"/>
<feColorMatrix type="matrix" values="0 0 0 0 0.317647 0 0 0 0 0.537255 0 0 0 0 0.741176 0 0 0 1 0"/>
<feBlend mode="normal" in2="BackgroundImageFix" result="effect1_dropShadow_188_1181"/>
<feBlend mode="normal" in="SourceGraphic" in2="effect1_dropShadow_188_1181" result="shape"/>
</filter>
<filter id="filter2_d_188_1181" x="132.156" y="201.092" width="135.989" height="135.989" filterUnits="userSpaceOnUse" color-interpolation-filters="sRGB">
<feFlood flood-opacity="0" result="BackgroundImageFix"/>
<feColorMatrix in="SourceAlpha" type="matrix" values="0 0 0 0 0 0 0 0 0 0 0 0 0 0 0 0 0 0 127 0" result="hardAlpha"/>
<feOffset/>
<feGaussianBlur stdDeviation="4"/>
<feComposite in2="hardAlpha" operator="out"/>
<feColorMatrix type="matrix" values="0 0 0 0 0.933333 0 0 0 0 0.533333 0 0 0 0 0.407843 0 0 0 1 0"/>
<feBlend mode="normal" in2="BackgroundImageFix" result="effect1_dropShadow_188_1181"/>
<feBlend mode="normal" in="SourceGraphic" in2="effect1_dropShadow_188_1181" result="shape"/>
</filter>
<linearGradient id="paint0_linear_188_1181" x1="81.479" y1="21.5767" x2="81.479" y2="140.249" gradientUnits="userSpaceOnUse">
<stop stop-color="#555555"/>
<stop offset="1" stop-opacity="0"/>
</linearGradient>
<linearGradient id="paint1_linear_188_1181" x1="318.824" y1="21.5767" x2="318.824" y2="140.249" gradientUnits="userSpaceOnUse">
<stop stop-color="#555555"/>
<stop offset="1" stop-opacity="0"/>
</linearGradient>
<linearGradient id="paint2_linear_188_1181" x1="200.151" y1="209.75" x2="200.151" y2="328.423" gradientUnits="userSpaceOnUse">
<stop stop-color="#555555"/>
<stop offset="1" stop-opacity="0"/>
</linearGradient>
<clipPath id="clip0_188_1181">
<rect width="7.90028" height="7.90028" fill="white" transform="translate(244.857 186.239) rotate(-150)"/>
</clipPath>
<clipPath id="clip1_188_1181">
<rect width="7.90028" height="7.90028" fill="white" transform="translate(131.157 159.106) rotate(-30)"/>
</clipPath>
</defs>
</svg>
