<svg width="90" height="89" viewBox="0 0 90 89" fill="none" xmlns="http://www.w3.org/2000/svg">
<path d="M36.9182 3.80273C20.36 7.00672 7.31868 20.0489 4.11816 36.6131H32.3804C36.7686 36.6131 40.2888 40.1086 40.2888 44.498C40.2888 48.8874 36.7686 52.4348 32.3806 52.4348H4.11816C7.31868 68.999 20.36 82.0412 36.9182 85.2452V56.9738C36.9182 52.5845 40.4384 49.0629 44.8264 49.0629C49.2144 49.0629 52.7606 52.5843 52.7606 56.9738V85.2452C69.3186 82.0412 82.3601 68.999 85.5606 52.4348H57.3242C52.9362 52.4348 49.39 48.8874 49.39 44.498C49.39 40.1086 52.9362 36.6131 57.3242 36.6131H85.5606C82.3601 20.0489 69.3188 7.00672 52.7606 3.80273V32.0222C52.7606 36.4116 49.2144 39.959 44.8264 39.959C40.4384 39.959 36.9182 36.4116 36.9182 32.0222V3.80273Z" fill="white"/>
</svg>
