<svg width="42" height="42" viewBox="0 0 42 42" fill="none" xmlns="http://www.w3.org/2000/svg">
<path d="M18.4677 4.93673C13.6808 5.00055 10.2619 7.83476 10.6625 12.2713C-3.35959 26.2041 7.27999 43.365 17.2866 36.3973C36.0567 38.3911 42.9172 25.3303 37.6014 19.1105C32.1435 8.8837 24.2927 4.85905 18.4677 4.93673ZM21.2929 9.26095C26.0801 9.21795 32.3624 12.084 36.8532 18.3573C34.2372 16.0524 29.5584 15.0631 22.7919 16.9234C41.504 16.546 35.5253 36.3068 17.5217 36.2297C19.412 34.8402 21.2726 32.5812 22.9321 29.2653C11.6373 41.9073 1.7815 25.3684 10.7527 12.947C11.2443 15.8162 13.274 19.2864 17.4392 23.0769C11.3723 14.2899 15.0669 9.31676 21.2929 9.26103L21.2929 9.26095ZM22.9196 18.2321C20.6432 18.2063 18.5853 19.7792 18.0848 22.0909C17.5129 24.7328 19.1915 27.3398 21.8333 27.9118C24.4752 28.4835 27.0797 26.8049 27.6516 24.163C28.2234 21.5212 26.5448 18.9143 23.9029 18.3424C23.5797 18.2725 23.2502 18.2355 22.9196 18.2321Z" fill="#333333"/>
</svg>
