<svg width="33" height="32" viewBox="0 0 33 32" fill="none" xmlns="http://www.w3.org/2000/svg">
<path d="M13.5132 1.36328C7.60349 2.50681 2.94893 7.16167 1.80664 13.0736H11.8937C13.4598 13.0736 14.7162 14.3211 14.7162 15.8877C14.7162 17.4543 13.4598 18.7204 11.8937 18.7204H1.80664C2.94893 24.6323 7.60349 29.2872 13.5132 30.4307V20.3404C13.5132 18.7739 14.7696 17.517 16.3357 17.517C17.9018 17.517 19.1675 18.7738 19.1675 20.3404V30.4307C25.0771 29.2872 29.7318 24.6323 30.8741 18.7204H20.7963C19.2301 18.7204 17.9645 17.4543 17.9645 15.8877C17.9645 14.3211 19.2301 13.0736 20.7963 13.0736H30.8741C29.7318 7.16167 25.0772 2.50681 19.1675 1.36328V11.435C19.1675 13.0016 17.9018 14.2677 16.3357 14.2677C14.7696 14.2677 13.5132 13.0016 13.5132 11.435V1.36328Z" fill="#83C878"/>
</svg>
