<svg width="56" height="54" viewBox="0 0 56 54" fill="none" xmlns="http://www.w3.org/2000/svg">
<path d="M5.48202 43.0434C1.62555 32.8197 8.57735 17.4426 21.0094 8.70117C6.32436 19.0357 -2.45418 35.6873 1.41243 45.911C5.2689 56.1347 20.299 56.0516 34.984 45.7309C22.552 54.4723 9.34864 53.2671 5.49217 43.0434H5.48202Z" fill="#888888"/>
<path d="M54.5813 8.53433C50.7249 -1.68937 35.6948 -1.60625 21.0098 8.71443C33.4418 -0.026978 46.6553 1.1644 50.5118 11.3881C54.3682 21.6118 47.4164 36.9889 34.9844 45.7303C49.6694 35.4097 58.448 18.758 54.5915 8.53433H54.5813Z" fill="#888888"/>
<path d="M43.5018 11.5818C34.2581 22.7917 23.8818 33.1824 12.6648 42.4188C21.9012 31.2018 32.2919 20.8255 43.5018 11.5818Z" fill="#888888"/>
<path d="M16.7877 15.7055C25.6216 21.8554 33.2381 29.4523 39.3782 38.296C30.5345 32.1559 22.9375 24.5394 16.7877 15.7055Z" fill="#888888"/>
<path d="M30.998 8.11133C30.7111 20.3825 28.7634 33.1088 25.1669 45.8907C25.4369 33.6222 27.4185 20.8907 30.998 8.11133Z" fill="#888888"/>
<path d="M9.19275 29.9166C21.9721 26.3371 34.7036 24.3554 46.9722 24.0854C34.1902 27.6819 21.4639 29.6296 9.19275 29.9166Z" fill="#888888"/>
</svg>
