<svg width="55" height="55" viewBox="0 0 55 55" fill="none" xmlns="http://www.w3.org/2000/svg">
<path d="M4.98202 43.683C1.12555 33.4593 8.07735 18.0822 20.5094 9.34082C5.82436 19.6754 -2.95418 36.327 0.912434 46.5507C4.7689 56.7744 19.799 56.6913 34.484 46.3706C22.052 55.112 8.84864 53.9068 4.99217 43.683H4.98202Z" fill="white"/>
<path d="M54.0813 9.17496C50.2249 -1.04874 35.1948 -0.965624 20.5098 9.35505C32.9418 0.613647 46.1553 1.80503 50.0118 12.0287C53.8682 22.2524 46.9164 37.6296 34.4844 46.371C49.1694 36.0503 57.948 19.3987 54.0915 9.17496H54.0813Z" fill="white"/>
<path d="M43.0018 12.2234C33.7581 23.4333 23.3818 33.824 12.1648 43.0604C21.4012 31.8434 31.7919 21.4671 43.0018 12.2234Z" fill="white"/>
<path d="M16.2877 16.3461C25.1216 22.496 32.7381 30.0929 38.8782 38.9366C30.0345 32.7966 22.4375 25.18 16.2877 16.3461Z" fill="white"/>
<path d="M30.498 8.75195C30.2111 21.0231 28.2634 33.7494 24.6669 46.5314C24.9369 34.2628 26.9185 21.5313 30.498 8.75195Z" fill="white"/>
<path d="M8.69275 30.5573C21.4721 26.9777 34.2036 24.9961 46.4722 24.7261C33.6902 28.3226 20.9639 30.2703 8.69275 30.5573Z" fill="white"/>
</svg>
