<svg width="56" height="54" viewBox="0 0 56 54" fill="none" xmlns="http://www.w3.org/2000/svg">
<path d="M5.48202 42.9389C1.62555 32.7152 8.57735 17.3381 21.0094 8.59668C6.32436 18.9312 -2.45418 35.5828 1.41243 45.8065C5.2689 56.0302 20.299 55.9471 34.984 45.6264C22.552 54.3678 9.34864 53.1626 5.49217 42.9389H5.48202Z" fill="white"/>
<path d="M54.5813 8.43082C50.7249 -1.79289 35.6948 -1.70976 21.0098 8.61091C33.4418 -0.130494 46.6553 1.06089 50.5118 11.2846C54.3682 21.5083 47.4164 36.8854 34.9844 45.6268C49.6694 35.3061 58.448 18.6545 54.5915 8.43082H54.5813Z" fill="white"/>
<path d="M43.5018 11.4793C34.2581 22.6892 23.8818 33.0798 12.6648 42.3163C21.9012 31.0992 32.2919 20.7229 43.5018 11.4793Z" fill="white"/>
<path d="M16.7877 15.602C25.6216 21.7519 33.2381 29.3488 39.3782 38.1925C30.5345 32.0524 22.9375 24.4359 16.7877 15.602Z" fill="white"/>
<path d="M30.998 8.00781C30.7111 20.279 28.7634 33.0052 25.1669 45.7872C25.4369 33.5187 27.4185 20.7872 30.998 8.00781Z" fill="white"/>
<path d="M9.19275 29.8131C21.9721 26.2336 34.7036 24.2519 46.9722 23.9819C34.1902 27.5784 21.4639 29.5261 9.19275 29.8131Z" fill="white"/>
</svg>
