<svg width="124" height="120" viewBox="0 0 124 120" fill="none" xmlns="http://www.w3.org/2000/svg">
<path d="M11.4242 96.0303C2.76241 73.0675 18.3764 38.53 46.2992 18.8965C13.3161 42.1082 -6.40083 79.5083 2.28373 102.471C10.9455 125.434 44.7036 125.247 77.6867 102.067C49.7639 121.7 20.1087 118.993 11.447 96.0303H11.4242Z" fill="#888888"/>
<path d="M121.703 18.5241C113.041 -4.43869 79.2829 -4.25199 46.2998 18.9286C74.2226 -0.704896 103.901 1.97099 112.562 24.9338C121.224 47.8966 105.61 82.4341 77.6873 102.068C110.67 78.887 130.387 41.4869 121.726 18.5241H121.703Z" fill="#888888"/>
<path d="M96.8174 25.3711C76.056 50.5489 52.7504 73.8867 27.5565 94.6321C48.3019 69.4382 71.6397 46.1326 96.8174 25.3711Z" fill="#888888"/>
<path d="M36.817 34.6302C56.6583 48.4431 73.7653 65.5061 87.5561 85.3693C67.6928 71.5785 50.6299 54.4715 36.817 34.6302Z" fill="#888888"/>
<path d="M68.7334 17.5742C68.0888 45.1356 63.7142 73.7193 55.6363 102.428C56.2428 74.8725 60.6937 46.2771 68.7334 17.5742Z" fill="#888888"/>
<path d="M19.7579 66.5497C48.4608 58.5099 77.0563 54.0591 104.612 53.4526C75.9031 61.5305 47.3194 65.9051 19.7579 66.5497Z" fill="#888888"/>
</svg>
