<svg width="1442" height="254" viewBox="0 0 1442 254" fill="none" xmlns="http://www.w3.org/2000/svg">
<path d="M1440.19 1.05078L1.02734 1.05078L1.02734 230.755L1440.19 230.755V1.05078Z" stroke="#333333" stroke-width="2" stroke-miterlimit="10"/>
<path d="M720.615 230.755L720.607 1.05078" stroke="#333333" stroke-width="2" stroke-miterlimit="10"/>
<path d="M1.02734 161.787L1440.19 161.787" stroke="#333333" stroke-width="2" stroke-miterlimit="10"/>
<path d="M1.02734 112.525L1440.19 112.525" stroke="#333333" stroke-width="2" stroke-miterlimit="10"/>
<path d="M1.02734 77.3379L1440.19 77.3379" stroke="#333333" stroke-width="2" stroke-miterlimit="10"/>
<path d="M1.01953 52.2031L1440.19 52.2031" stroke="#333333" stroke-width="2" stroke-miterlimit="10"/>
<path d="M1.01953 34.252L1440.19 34.252" stroke="#333333" stroke-width="2" stroke-miterlimit="10"/>
<path d="M1.01953 21.4297L1440.19 21.4297" stroke="#333333" stroke-width="2" stroke-miterlimit="10"/>
<path d="M1.01953 12.2656L1440.19 12.2656" stroke="#333333" stroke-width="2" stroke-miterlimit="10"/>
<path d="M1.01953 5.72461L1440.19 5.72461" stroke="#333333" stroke-width="2" stroke-miterlimit="10"/>
<path d="M411.706 254.001C411.706 133.052 228.035 35.1348 1.0498 35.1348" stroke="#333333" stroke-width="2" stroke-miterlimit="10"/>
<path d="M317.515 254.001C317.515 156.847 175.972 78.2344 1.0498 78.2344" stroke="#333333" stroke-width="2" stroke-miterlimit="10"/>
<path d="M1029.53 253.113C1029.53 132.142 1213.2 34.2539 1440.19 34.2539" stroke="#333333" stroke-width="2" stroke-miterlimit="10"/>
<path d="M1123.72 253.112C1123.72 155.958 1265.26 77.3379 1440.19 77.3379" stroke="#333333" stroke-width="2" stroke-miterlimit="10"/>
</svg>
