<svg width="52" height="52" viewBox="0 0 52 52" fill="none" xmlns="http://www.w3.org/2000/svg">
<path d="M39.8484 19.8792C41.979 22.1376 43.0443 24.9799 43.0443 28.4017C43.0443 35.7866 35.1609 37.5124 31.3258 47.5776C29.9046 46.3524 29.1951 44.5776 29.1951 42.2509C29.1951 34.832 39.8484 30.9798 39.8484 19.8792ZM31.3258 11.3566C33.8826 13.9943 35.1609 16.8366 35.1609 19.8792C35.1609 30.428 22.2812 32.0068 24.9338 47.5776C21.3821 45.106 19.6072 41.5542 19.6072 36.9243C19.6072 29.8399 31.3258 24.1404 31.3258 11.3566ZM21.7379 2.83398C24.578 6.38577 25.9992 9.58174 25.9992 12.4219C25.9992 25.7384 7.88867 29.9401 17.4766 47.5776C11.9028 46.3418 7.88867 41.1856 7.88867 34.7937C7.88867 20.9445 21.7379 18.8138 21.7379 2.83398Z" fill="white"/>
</svg>
