<svg width="90" height="89" viewBox="0 0 90 89" fill="none" xmlns="http://www.w3.org/2000/svg">
<path d="M69.0915 33.4764C72.7858 37.3924 74.633 42.3206 74.633 48.2537C74.633 61.0582 60.964 64.0506 54.3142 81.5025C51.8501 79.3783 50.6199 76.3009 50.6199 72.2667C50.6199 59.4031 69.0915 52.7238 69.0915 33.4764ZM54.3142 18.6991C58.7474 23.2727 60.964 28.2009 60.964 33.4764C60.964 51.767 38.6319 54.5045 43.2313 81.5025C37.0729 77.2171 33.9955 71.0587 33.9955 63.0309C33.9955 50.7473 54.3142 40.865 54.3142 18.6991ZM37.6898 3.92188C42.6143 10.0803 45.0784 15.6218 45.0784 20.5463C45.0784 43.6358 13.6768 50.921 30.3012 81.5025C20.6369 79.3598 13.6768 70.4196 13.6768 59.3366C13.6768 35.3236 37.6898 31.6292 37.6898 3.92188Z" fill="white"/>
</svg>
