<svg width="45" height="56" viewBox="0 0 45 56" fill="none" xmlns="http://www.w3.org/2000/svg">
<path d="M40.132 21.5149C42.7524 24.2924 44.0625 27.7879 44.0625 31.9962C44.0625 41.0782 34.3673 43.2007 29.6507 55.5791C27.903 54.0724 27.0304 51.8897 27.0304 49.0283C27.0304 39.9043 40.132 35.1668 40.132 21.5149ZM29.6507 11.0335C32.7951 14.2775 34.3673 17.773 34.3673 21.5149C34.3673 34.4881 18.5275 36.4297 21.7898 55.5791C17.4217 52.5395 15.2389 48.1714 15.2389 42.4775C15.2389 33.7649 29.6507 26.7555 29.6507 11.0335ZM17.8593 0.552246C21.3522 4.92033 23.0999 8.85082 23.0999 12.3437C23.0999 28.7207 0.827148 33.888 12.6186 55.5791C5.76384 54.0593 0.827148 47.7181 0.827148 39.8571C0.827148 22.825 17.8593 20.2047 17.8593 0.552246Z" fill="#EE8868"/>
</svg>
