<svg width="32" height="32" viewBox="0 0 32 32" fill="none" xmlns="http://www.w3.org/2000/svg">
<path d="M24.6968 11.9378C26.0162 13.3363 26.6759 15.0964 26.6759 17.2153C26.6759 21.7882 21.7942 22.8569 19.4193 29.0896C18.5393 28.331 18.1 27.2319 18.1 25.7912C18.1 21.1971 24.6968 18.8117 24.6968 11.9378ZM19.4193 6.6603C21.0026 8.29368 21.7942 10.0537 21.7942 11.9378C21.7942 18.47 13.8186 19.4477 15.4612 29.0896C13.2618 27.5591 12.1628 25.3598 12.1628 22.4928C12.1628 18.1059 19.4193 14.5765 19.4193 6.6603ZM13.4822 1.38281C15.2409 3.58221 16.1209 5.56126 16.1209 7.31999C16.1209 15.5661 4.90625 18.1679 10.8434 29.0896C7.39195 28.3244 4.90625 25.1315 4.90625 21.1734C4.90625 12.5975 13.4822 11.2781 13.4822 1.38281Z" fill="#EE8868"/>
</svg>
