<svg width="56" height="47" viewBox="0 0 56 47" fill="none" xmlns="http://www.w3.org/2000/svg">
<path d="M33.9793 0.572476C33.8046 0.243103 33.3747 0.151522 33.0809 0.381075L22.9869 8.26755C22.6908 8.49883 22.2575 8.40389 22.0853 8.07003L18.2817 0.696451C18.1183 0.379536 17.7159 0.274609 17.4185 0.471333L0.404431 11.725C0.236656 11.8359 0.135742 12.0237 0.135742 12.2248V21.5748C0.135742 22.0607 0.683721 22.3446 1.08071 22.0644L13.3264 13.4189C13.6127 13.2168 14.0107 13.3024 14.1885 13.6045L18.5115 20.9488C18.6887 21.25 19.085 21.3362 19.3714 21.1359L30.0237 13.6863C30.3235 13.4767 30.7395 13.5822 30.9031 13.9093L34.6539 21.407C34.8198 21.7385 35.2437 21.8415 35.5431 21.623L46.3171 13.7634C46.569 13.5796 46.9196 13.6197 47.1236 13.8554L54.3147 22.1672C54.6756 22.5845 55.3609 22.3336 55.3672 21.7819L55.5088 9.30627C55.5102 9.18467 55.4745 9.06552 55.4066 8.96466L49.8106 0.656525C49.6192 0.372429 49.2291 0.306219 48.9547 0.511274L38.7681 8.12431C38.4736 8.34441 38.0522 8.2499 37.8799 7.92512L33.9793 0.572476ZM33.6443 24.4644L22.9868 32.7913C22.6908 33.0226 22.2575 32.9277 22.0852 32.5939L18.2817 25.2237C18.1182 24.9069 17.716 24.802 17.4186 24.9986L0.404508 36.2485C0.236689 36.3595 0.135742 36.5473 0.135742 36.7484V46.098C0.135742 46.584 0.683708 46.8679 1.0807 46.5876L13.3265 37.9425C13.6129 37.7403 14.0108 37.826 14.1886 38.1281L18.5116 45.4724C18.6889 45.7735 19.0852 45.8598 19.3716 45.6595L30.0238 38.2096C30.3236 37.9999 30.7396 38.1054 30.9033 38.4325L34.6541 45.9306C34.8199 46.262 35.2438 46.365 35.5432 46.1467L46.3174 38.2904C46.5692 38.1068 46.9197 38.1468 47.1236 38.3824L54.3149 46.6909C54.6759 47.108 55.361 46.8571 55.3673 46.3055L55.5089 33.8297C55.5103 33.708 55.4746 33.5888 55.4067 33.4879L49.8108 25.1835C49.6194 24.8995 49.2294 24.8333 48.9551 25.0382L38.7683 32.6477C38.4738 32.8677 38.0525 32.7732 37.8802 32.4485L33.6445 24.4644C33.6444 24.4643 33.6443 24.4643 33.6443 24.4644Z" fill="#5189BD"/>
</svg>
