<svg width="79" height="67" viewBox="0 0 79 67" fill="none" xmlns="http://www.w3.org/2000/svg">
<path d="M48.1418 0.943148C47.8954 0.478775 47.2894 0.349658 46.8751 0.673297L32.6439 11.7922C32.2265 12.1183 31.6155 11.9844 31.3727 11.5137L26.0102 1.11794C25.7798 0.671127 25.2125 0.523195 24.7932 0.80055L0.805574 16.6667C0.569033 16.8231 0.426758 17.0878 0.426758 17.3714V30.5536C0.426758 31.2388 1.19934 31.6391 1.75904 31.2439L19.0238 19.055C19.4276 18.7699 19.9887 18.8907 20.2393 19.3166L26.3341 29.6711C26.5841 30.0957 27.1428 30.2173 27.5466 29.9349L42.5649 19.432C42.9875 19.1364 43.574 19.2851 43.8048 19.7464L49.0929 30.3171C49.3267 30.7844 49.9244 30.9296 50.3465 30.6217L65.5365 19.5406C65.8915 19.2816 66.3859 19.338 66.6734 19.6704L76.8119 31.3889C77.3209 31.9772 78.287 31.6235 78.2958 30.8457L78.4955 13.2567C78.4975 13.0852 78.4472 12.9172 78.3514 12.775L70.4618 1.06165C70.192 0.661108 69.642 0.567761 69.2551 0.856861L54.8934 11.5903C54.4782 11.9006 53.884 11.7673 53.6411 11.3094L48.1418 0.943148ZM47.6694 34.6276L32.6437 46.3675C32.2264 46.6935 31.6155 46.5598 31.3726 46.0892L26.0102 35.6981C25.7797 35.2515 25.2126 35.1036 24.7933 35.3808L0.805682 51.2417C0.569079 51.3982 0.426758 51.6629 0.426758 51.9465V65.1282C0.426758 65.8133 1.19932 66.2136 1.75902 65.8185L19.024 53.6299C19.4277 53.3449 19.9888 53.4657 20.2395 53.8916L26.3343 64.2461C26.5842 64.6707 27.143 64.7923 27.5467 64.5099L42.565 54.0065C42.9877 53.7109 43.5742 53.8596 43.805 54.3209L49.0932 64.8921C49.3269 65.3594 49.9245 65.5046 50.3467 65.1968L65.5368 54.1204C65.8918 53.8616 66.386 53.918 66.6735 54.2502L76.8122 65.9641C77.3212 66.5521 78.2872 66.1984 78.296 65.4207L78.4957 47.8314C78.4976 47.6599 78.4474 47.4919 78.3515 47.3496L70.462 35.6414C70.1923 35.2411 69.6424 35.1477 69.2557 35.4367L54.8936 46.1651C54.4784 46.4752 53.8844 46.3419 53.6416 45.8841L47.6697 34.6276C47.6696 34.6275 47.6695 34.6275 47.6694 34.6276V34.6276Z" fill="white"/>
</svg>
