<svg width="69" height="17" viewBox="0 0 69 17" fill="none" xmlns="http://www.w3.org/2000/svg">
<path d="M0.0107422 14.1836V3.23403H6.09001V4.45444H2.44017V8.10429H4.881V9.3133H2.44017V12.9631H6.09001V14.1836H0.0107422Z" fill="#888888"/>
<path d="M7.84764 14.1836V4.45444H5.41821V3.23403H12.7179V4.45444H10.2885V14.1836H7.84764Z" fill="#888888"/>
<path d="M12.0404 14.1836V3.23403H14.4698V8.10429H16.9107V3.23403H19.3401V14.1836H16.9107V9.3133H14.4698V14.1836H12.0404Z" fill="#888888"/>
<path d="M19.8659 14.1836V3.23403H25.9452V4.45444H22.2953V8.10429H24.7361V9.3133H22.2953V12.9631H25.9452V14.1836H19.8659Z" fill="#888888"/>
<path d="M26.4938 14.1836V3.23403H31.364C32.0294 3.23403 32.5997 3.47355 33.0749 3.95259C33.5539 4.43163 33.7935 5.00192 33.7935 5.66345V6.32499C33.7935 6.86866 33.6072 7.39333 33.2346 7.89898C32.862 8.40084 32.2385 8.65176 31.364 8.65176H32.573C32.9076 8.65176 33.1947 8.77152 33.4342 9.01104C33.6737 9.25057 33.7935 9.53761 33.7935 9.87218V14.1836H31.364V10.5337C31.364 10.1991 31.2424 9.9121 30.999 9.67258C30.7595 9.43306 30.4744 9.3133 30.1436 9.3133H28.9232V14.1836H26.4938ZM28.9232 8.10429H30.1436C30.4744 8.10429 30.7595 7.98453 30.999 7.74501C31.2424 7.50168 31.364 7.21464 31.364 6.88387V5.66345C31.364 5.33269 31.2424 5.04944 30.999 4.81373C30.7595 4.57421 30.4744 4.45444 30.1436 4.45444H28.9232V8.10429Z" fill="#888888"/>
<path d="M36.804 13.599C35.631 10.4894 37.7454 5.81238 41.5267 3.15365C37.0602 6.29694 34.3902 11.3616 35.5662 14.4712C36.7392 17.5807 41.3106 17.5555 45.7771 14.4164C41.9959 17.0751 37.98 16.7085 36.8071 13.599H36.804Z" fill="#888888"/>
<path d="M51.7375 3.10306C50.5646 -0.00651584 45.9931 0.0187654 41.5266 3.15784C45.3079 0.499106 49.3268 0.861469 50.4998 3.97104C51.6727 7.08062 49.5584 11.7577 45.7771 14.4164C50.2436 11.2773 52.9136 6.21264 51.7406 3.10306H51.7375Z" fill="#888888"/>
<path d="M48.3676 4.03015C45.5562 7.43967 42.4002 10.6 38.9885 13.4093C41.7978 9.99762 44.9581 6.84163 48.3676 4.03015Z" fill="#888888"/>
<path d="M40.2426 5.28422C42.9294 7.15473 45.246 9.46536 47.1136 12.1552C44.4237 10.2877 42.1131 7.97109 40.2426 5.28422Z" fill="#888888"/>
<path d="M44.5649 2.97437C44.4776 6.70668 43.8852 10.5774 42.7913 14.4651C42.8735 10.7336 43.4762 6.86125 44.5649 2.97437Z" fill="#888888"/>
<path d="M37.9328 9.60653C41.8196 8.5178 45.692 7.91507 49.4235 7.83295C45.5358 8.92683 41.6651 9.51924 37.9328 9.60653Z" fill="#888888"/>
<path d="M53.2374 14.1836V3.23403H58.1077C58.773 3.23403 59.3433 3.47355 59.8185 3.95259C60.2976 4.43163 60.5371 5.00192 60.5371 5.66345V6.32499C60.5371 6.86866 60.3508 7.39333 59.9782 7.89898C59.6056 8.40084 58.9821 8.65176 58.1077 8.65176H59.3167C59.6512 8.65176 59.9383 8.77152 60.1778 9.01104C60.4173 9.25057 60.5371 9.53761 60.5371 9.87218V14.1836H58.1077V10.5337C58.1077 10.1991 57.986 9.9121 57.7427 9.67258C57.5032 9.43306 57.218 9.3133 56.8872 9.3133H55.6668V14.1836H53.2374ZM55.6668 8.10429H56.8872C57.218 8.10429 57.5032 7.98453 57.7427 7.74501C57.986 7.50168 58.1077 7.21464 58.1077 6.88387V5.66345C58.1077 5.33269 57.986 5.04944 57.7427 4.81373C57.5032 4.57421 57.218 4.45444 56.8872 4.45444H55.6668V8.10429Z" fill="#888888"/>
<path d="M61.0629 14.1836V3.23403H65.9331C66.5985 3.23403 67.1688 3.47355 67.644 3.95259C68.1231 4.43163 68.3626 5.00192 68.3626 5.66345V6.27937C68.3626 6.99032 68.1592 7.54921 67.7524 7.95601C67.3494 8.36282 66.743 8.61374 65.9331 8.70879C66.743 8.70879 67.3494 8.95402 67.7524 9.44446C68.1592 9.93111 68.3626 10.4957 68.3626 11.1382V11.7541C68.3626 12.4119 68.1212 12.9821 67.6383 13.465C67.1593 13.944 66.5909 14.1836 65.9331 14.1836H61.0629ZM63.4923 8.10429H64.7127C65.0435 8.10429 65.3286 7.98453 65.5682 7.74501C65.8115 7.50168 65.9331 7.21464 65.9331 6.88387V5.66345C65.9331 5.33269 65.8115 5.04944 65.5682 4.81373C65.3286 4.57421 65.0435 4.45444 64.7127 4.45444H63.4923V8.10429ZM63.4923 12.9631H64.7127C65.0435 12.9631 65.3286 12.8434 65.5682 12.6039C65.8115 12.3643 65.9331 12.0811 65.9331 11.7541V10.5337C65.9331 9.7201 65.5263 9.3133 64.7127 9.3133H63.4923V12.9631Z" fill="#888888"/>
</svg>
