<svg width="170" height="170" viewBox="0 0 170 170" fill="none" xmlns="http://www.w3.org/2000/svg">
<path d="M84.8391 168.506C131.041 168.506 168.496 131.052 168.496 84.8499C168.496 38.6476 131.041 1.19336 84.8391 1.19336C38.6369 1.19336 1.18262 38.6476 1.18262 84.8499C1.18262 131.052 38.6369 168.506 84.8391 168.506Z" fill="black"/>
<path d="M84.8391 168.506C131.041 168.506 168.496 131.052 168.496 84.8499C168.496 38.6476 131.041 1.19336 84.8391 1.19336C38.6369 1.19336 1.18262 38.6476 1.18262 84.8499C1.18262 131.052 38.6369 168.506 84.8391 168.506Z" fill="url(#paint0_linear_234_109)" fill-opacity="0.2"/>
<path d="M84.8391 168.506C131.041 168.506 168.496 131.052 168.496 84.8499C168.496 38.6476 131.041 1.19336 84.8391 1.19336C38.6369 1.19336 1.18262 38.6476 1.18262 84.8499C1.18262 131.052 38.6369 168.506 84.8391 168.506Z" stroke="#333333" stroke-width="1.85639" stroke-miterlimit="10"/>
<defs>
<linearGradient id="paint0_linear_234_109" x1="84.8391" y1="1.19336" x2="84.8391" y2="168.506" gradientUnits="userSpaceOnUse">
<stop stop-color="#555555"/>
<stop offset="1" stop-opacity="0"/>
</linearGradient>
</defs>
</svg>
