<svg width="342" height="80" viewBox="0 0 342 80" fill="none" xmlns="http://www.w3.org/2000/svg">
<path d="M0.120117 66.757V12.0092H30.5165V18.1113H12.2673V36.3605H24.4715V42.4056H12.2673V60.6549H30.5165V66.757H0.120117Z" fill="#DEE0FF"/>
<path d="M39.3047 66.757V18.1113H27.1575V12.0092H63.656V18.1113H51.5089V66.757H39.3047Z" fill="#DEE0FF"/>
<path d="M60.2685 66.757V12.0092H72.4157V36.3605H84.6199V12.0092H96.767V66.757H84.6199V42.4056H72.4157V66.757H60.2685Z" fill="#DEE0FF"/>
<path d="M99.396 66.757V12.0092H129.792V18.1113H111.543V36.3605H123.747V42.4056H111.543V60.6549H129.792V66.757H99.396Z" fill="#DEE0FF"/>
<path d="M132.536 66.757V12.0092H156.887C160.214 12.0092 163.065 13.2068 165.441 15.602C167.836 17.9972 169.034 20.8487 169.034 24.1564V27.464C169.034 30.1824 168.103 32.8057 166.24 35.334C164.377 37.8433 161.259 39.0979 156.887 39.0979H162.932C164.605 39.0979 166.04 39.6967 167.238 40.8943C168.435 42.0919 169.034 43.5272 169.034 45.2V66.757H156.887V48.5077C156.887 46.8349 156.279 45.3996 155.062 44.202C153.864 43.0044 152.439 42.4056 150.785 42.4056H144.683V66.757H132.536ZM144.683 36.3605H150.785C152.439 36.3605 153.864 35.7617 155.062 34.5641C156.279 33.3475 156.887 31.9123 156.887 30.2584V24.1564C156.887 22.5025 156.279 21.0863 155.062 19.9077C153.864 18.7101 152.439 18.1113 150.785 18.1113H144.683V36.3605Z" fill="#DEE0FF"/>
<path d="M184.087 64.0592C178.222 48.5113 188.794 25.1262 207.701 11.8326C185.368 27.549 172.018 52.8723 177.898 68.4202C183.763 83.9681 206.62 83.8417 228.953 68.1463C210.047 81.44 189.967 79.6071 184.103 64.0592H184.087Z" fill="#DEE0FF"/>
<path d="M258.756 11.5798C252.891 -3.96813 230.034 -3.84173 207.701 11.8537C226.608 -1.44002 246.702 0.371798 252.567 15.9197C258.432 31.4676 247.859 54.8527 228.953 68.1463C251.286 52.451 264.636 27.1277 258.771 11.5798H258.756Z" fill="#DEE0FF"/>
<path d="M241.906 16.2149C227.849 33.2626 212.069 49.0644 195.01 63.1109C209.057 46.0523 224.858 30.2723 241.906 16.2149Z" fill="#DEE0FF"/>
<path d="M201.28 22.4855C214.714 31.8381 226.297 43.3912 235.635 56.8405C222.186 47.5028 210.633 35.9198 201.28 22.4855Z" fill="#DEE0FF"/>
<path d="M222.891 10.9361C222.454 29.5977 219.492 48.9515 214.023 68.3899C214.433 49.7323 217.447 30.3706 222.891 10.9361Z" fill="#DEE0FF"/>
<path d="M189.73 44.097C209.164 38.6533 228.526 35.6397 247.184 35.2291C227.745 40.6985 208.391 43.6605 189.73 44.097Z" fill="#DEE0FF"/>
<path d="M266.255 66.757V12.0092H290.606C293.933 12.0092 296.784 13.2068 299.16 15.602C301.556 17.9972 302.753 20.8487 302.753 24.1564V27.464C302.753 30.1824 301.822 32.8057 299.959 35.334C298.096 37.8433 294.978 39.0979 290.606 39.0979H296.651C298.324 39.0979 299.759 39.6967 300.957 40.8943C302.154 42.0919 302.753 43.5272 302.753 45.2V66.757H290.606V48.5077C290.606 46.8349 289.998 45.3996 288.781 44.202C287.584 43.0044 286.158 42.4056 284.504 42.4056H278.402V66.757H266.255ZM278.402 36.3605H284.504C286.158 36.3605 287.584 35.7617 288.781 34.5641C289.998 33.3475 290.606 31.9123 290.606 30.2584V24.1564C290.606 22.5025 289.998 21.0863 288.781 19.9077C287.584 18.7101 286.158 18.1113 284.504 18.1113H278.402V36.3605Z" fill="#DEE0FF"/>
<path d="M305.382 66.757V12.0092H329.734C333.06 12.0092 335.912 13.2068 338.288 15.602C340.683 17.9972 341.881 20.8487 341.881 24.1564V27.2359C341.881 30.7907 340.864 33.5851 338.83 35.6192C336.815 37.6532 333.783 38.9078 329.734 39.3831C333.783 39.3831 336.815 40.6092 338.83 43.0614C340.864 45.4947 341.881 48.3176 341.881 51.5302V54.6098C341.881 57.8985 340.674 60.7499 338.259 63.1641C335.864 65.5593 333.022 66.757 329.734 66.757H305.382ZM317.529 36.3605H323.632C325.285 36.3605 326.711 35.7617 327.909 34.5641C329.125 33.3475 329.734 31.9123 329.734 30.2584V24.1564C329.734 22.5025 329.125 21.0863 327.909 19.9077C326.711 18.7101 325.285 18.1113 323.632 18.1113H317.529V36.3605ZM317.529 60.6549H323.632C325.285 60.6549 326.711 60.0561 327.909 58.8584C329.125 57.6608 329.734 56.2446 329.734 54.6098V48.5077C329.734 44.4396 327.7 42.4056 323.632 42.4056H317.529V60.6549Z" fill="#DEE0FF"/>
</svg>
